<?xml version="1.0" encoding="utf-8"?>
<!-- Generator: Adobe Illustrator 18.1.1, SVG Export Plug-In . SVG Version: 6.00 Build 0)  -->
<svg version="1.1"
	 id="Layer_1" xmlns:cc="http://creativecommons.org/ns#" xmlns:rdf="http://www.w3.org/1999/02/22-rdf-syntax-ns#" xmlns:dc="http://purl.org/dc/elements/1.1/"
	 xmlns="http://www.w3.org/2000/svg" xmlns:xlink="http://www.w3.org/1999/xlink" x="0px" y="0px" viewBox="0 0 612 792"
	 enable-background="new 0 0 612 792" xml:space="preserve">
<path fill="#FFFFFF" d="M188.8,253.7c-32.4,0-58.8,26.9-58.8,59.4c0,25.7,17.1,48.3,40.4,55.7v178.1c-23.3,8-40.4,30-40.4,56.3
	c0,32.4,26.3,58.8,58.8,58.8s58.8-26.3,58.8-58.8c0-25.7-17.1-48.3-41-56.3v-3.1c0-26.9,8-37.3,23.3-47.1
	c15.3-9.8,39.2-15.3,64.9-21.4c25.7-6.1,53.9-13.5,76.5-30.6c20.8-15.9,36.1-41,38.6-75.9c23.9-7.3,41-30,41-55.7
	c0-32.4-26.3-59.4-58.8-59.4s-58.8,26.9-58.8,59.4c0,25.7,17.1,47.7,40.4,55.7c-1.8,25.1-11,37.3-24.5,47.7
	c-15.3,11.6-37.9,17.7-63.6,24.5c-25.1,6.1-52.6,11.6-75.3,26.3c-1.2,0.6-3.1,1.8-4.3,2.4V369.4c23.3-8,41-30,41-55.7
	C248.1,280.7,221.2,253.7,188.8,253.7z M188.8,289.8c12.9,0,22.6,9.8,22.6,22.6c0,12.9-9.8,22.6-22.6,22.6
	c-12.9,0-22.6-9.8-22.6-22.6C166.1,299.6,175.9,289.8,188.8,289.8z M393.2,289.8c12.9,0,22.6,9.8,22.6,22.6
	c0,12.9-9.8,22.6-22.6,22.6c-12.9,0-22.6-9.8-22.6-22.6C370.5,299.6,380.3,289.8,393.2,289.8z M188.8,579.9
	c12.9,0,22.6,9.8,22.6,22.6s-9.8,22.6-22.6,22.6c-12.9,0-22.6-9.8-22.6-22.6S175.9,579.9,188.8,579.9z"/>
</svg>
