<?xml version="1.0" encoding="utf-8"?>
<!-- Generator: Adobe Illustrator 18.1.1, SVG Export Plug-In . SVG Version: 6.00 Build 0)  -->
<svg version="1.1" id="Layer_1" xmlns="http://www.w3.org/2000/svg" xmlns:xlink="http://www.w3.org/1999/xlink" x="0px" y="0px"
	 viewBox="-255 380.5 100 33.5" enable-background="new -255 380.5 100 33.5" xml:space="preserve">
<path fill="#FFFFFF" d="M-194.9,381.4c-2.8,0.7-6.1,1.4-9,1.3c-1.7-0.1-3.4-0.5-5-0.8c-10.6-2.5-20.1-3.4-31.9-0.7l0.8,5
	c0.7,0,2,0.3,2,1.7c0.4,11.3,3.4,16.7,14.1,16.4c13.2-0.3,16.7-10.9,17.4-15c0.4-2.2,1.5-2.4,2.7-2.4c2.2-0.1,2.5,1.6,2.8,2.5
	c4.5,11.5,7.3,14.1,16.8,14.9c14.5,1.3,12.8-9.5,14.8-15.7c0.4-1.2,0.8-1.8,2.1-1.8l0.6-5C-175.1,380.1-183.8,378.6-194.9,381.4z
	 M-237.1,384.4c-1,0-1.9-0.2-1.9-0.5c0-0.3,0.8-0.5,1.9-0.5c1,0,1.9,0.2,1.9,0.5C-235.2,384.2-236,384.4-237.1,384.4z M-210.3,392
	c-2,6-5.2,10.3-13.3,10.5c-8.1,0-10.4-1.5-11.5-10.9c0-6.3-0.4-10,11.6-10C-215.5,382.5-207.1,382.4-210.3,392z M-172.1,391.7
	c-1.1,9.4-3.4,10.9-11.5,10.9c-8.2-0.2-11.3-4.6-13.3-10.5c-3.3-9.6,5.2-9.5,13.3-10.3C-171.7,381.7-172.1,385.4-172.1,391.7z
	 M-170.1,384.9c-1,0-1.9-0.2-1.9-0.5c0-0.3,0.8-0.5,1.9-0.5s1.9,0.2,1.9,0.5C-168.2,384.7-169.1,384.9-170.1,384.9z"/>
</svg>
